<svg width="64" height="65" viewBox="0 0 64 65" fill="none" xmlns="http://www.w3.org/2000/svg">
<g clip-path="url(#clip0_5620_7271)">
<path d="M62.9946 40.0661C58.7208 57.2092 41.3577 67.6421 24.2126 63.3672C7.07478 59.0933 -3.35813 41.7291 0.917581 24.5875C5.18953 7.4426 22.5526 -2.99109 39.6924 1.28274C56.8362 5.55657 67.2685 22.9226 62.9942 40.0665L62.9945 40.0661H62.9946Z" fill="#F7931A"/>
<path d="M46.1107 27.7192C46.7477 23.4607 43.5055 21.1716 39.0722 19.6445L40.5104 13.876L36.9989 13.0011L35.5988 18.6177C34.6757 18.3875 33.7277 18.1705 32.7854 17.9554L34.1957 12.3017L30.6864 11.4268L29.2474 17.1934C28.4835 17.0195 27.7331 16.8476 27.0052 16.6664L27.0093 16.6483L22.1669 15.4391L21.2328 19.1895C21.2328 19.1895 23.838 19.7867 23.7831 19.8235C25.205 20.1784 25.4622 21.1197 25.4195 21.8658L23.7812 28.4375C23.8791 28.4623 24.0061 28.4983 24.1463 28.5546C24.0291 28.5255 23.9045 28.4938 23.7751 28.4628L21.4788 37.6688C21.305 38.1008 20.864 38.7492 19.8698 38.503C19.905 38.5539 17.3176 37.866 17.3176 37.866L15.5742 41.8855L20.1438 43.0247C20.9939 43.2379 21.827 43.4609 22.6474 43.6707L21.1943 49.5054L24.7017 50.3803L26.1407 44.6076C27.0989 44.8677 28.0288 45.1077 28.9391 45.3338L27.5049 51.0793L31.0166 51.9543L32.4695 46.1306C38.4573 47.2638 42.9596 46.8069 44.8547 41.391C46.3818 37.0305 44.7787 34.5154 41.6286 32.8752C43.923 32.3461 45.6512 30.837 46.112 27.7197L46.1109 27.7189L46.1107 27.7192ZM38.0878 38.9694C37.0027 43.3299 29.6609 40.9727 27.2806 40.3816L29.2089 32.6517C31.589 33.2459 39.222 34.4218 38.088 38.9694H38.0878ZM39.1738 27.656C38.1839 31.6223 32.0733 29.6073 30.0911 29.1132L31.8393 22.1026C33.8215 22.5967 40.2051 23.5189 39.1741 27.656H39.1738Z" fill="white"/>
</g>
<defs>
<clipPath id="clip0_5620_7271">
<rect width="64" height="64" fill="white" transform="translate(0 0.27832)"/>
</clipPath>
</defs>
</svg>
