<svg width="28" height="28" viewBox="0 0 28 28" fill="none" xmlns="http://www.w3.org/2000/svg">
<path opacity="0.4" d="M13.9984 27.3309C12.973 27.3309 11.949 26.9416 11.1664 26.1643L10.193 25.1909C9.8157 24.8149 9.31036 24.6069 8.77436 24.6056H7.40503C5.1917 24.6056 3.39036 22.8043 3.39036 20.5909V19.2203C3.38903 18.6856 3.18103 18.1803 2.8037 17.8003L1.84636 16.8443C0.278363 15.2856 0.271696 12.7376 1.8317 11.1683L2.80503 10.1936C3.18103 9.81627 3.38903 9.31094 3.39036 8.77494V7.40694C3.39036 5.19227 5.1917 3.39094 7.40503 3.39094H8.7757C9.31036 3.39094 9.81436 3.18294 10.1944 2.80294L11.153 1.84694C12.7117 0.278941 15.2584 0.270941 16.829 1.83227L17.8024 2.80561C18.181 3.18294 18.685 3.39094 19.2197 3.39094H20.5904C22.8037 3.39094 24.605 5.19227 24.605 7.40694V8.77627C24.6064 9.31094 24.8144 9.81627 25.1917 10.1963L26.149 11.1536C26.9077 11.9083 27.3277 12.9136 27.3317 13.9869C27.3344 15.0536 26.9237 16.0576 26.1757 16.8163C26.1624 16.8296 26.1504 16.8443 26.137 16.8563L25.1904 17.8029C24.8144 18.1803 24.6064 18.6856 24.605 19.2216V20.5909C24.605 22.8043 22.8037 24.6056 20.5904 24.6056H19.2197C18.685 24.6069 18.1797 24.8149 17.801 25.1923L16.8424 26.1496C16.061 26.9363 15.029 27.3309 13.9984 27.3309" fill="#EDC764"/>
</svg>
