<svg width="151" height="151" viewBox="0 0 151 151" fill="none" xmlns="http://www.w3.org/2000/svg">
<g filter="url(#filter0_b_1831_12470)">
<circle cx="75.5" cy="75.5" r="75.5" fill="#C4C4C4" fill-opacity="0.1"/>
</g>
<path opacity="0.4" d="M49.334 72.5427C49.4673 78.7773 49.8407 89.4413 49.894 90.6173C50.0833 93.132 51.046 95.6733 52.5447 97.4653C54.63 99.98 57.198 101.103 60.7793 101.103C65.7287 101.129 71.1847 101.129 76.4833 101.129C81.8033 101.129 86.966 101.129 91.326 101.103C94.8567 101.103 97.5047 99.9507 99.5633 97.4653C101.062 95.6733 102.025 93.1053 102.161 90.6173C102.214 89.628 102.481 78.052 102.641 72.5427H49.334Z" fill="white"/>
<path d="M73.9883 84.0245V87.4752C73.9883 88.5792 74.8843 89.4752 75.9883 89.4752C77.0923 89.4752 77.9883 88.5792 77.9883 87.4752V84.0245C77.9883 82.9205 77.0923 82.0245 75.9883 82.0245C74.8843 82.0245 73.9883 82.9205 73.9883 84.0245Z" fill="white"/>
<path fill-rule="evenodd" clip-rule="evenodd" d="M71.23 81.8171C70.9633 82.7851 70.0327 83.4037 69.0247 83.2704C62.222 82.3211 55.7207 79.9077 50.2327 76.2837C49.67 75.9157 49.334 75.2864 49.334 74.6144V65.3717C49.334 59.7717 53.8993 55.2171 59.5127 55.2171H64.758C65.2593 51.3451 68.5393 48.3344 72.5447 48.3344H79.43C83.4327 48.3344 86.7153 51.3451 87.2167 55.2171H92.4887C98.086 55.2171 102.641 59.7717 102.641 65.3717V74.6144C102.641 75.2864 102.302 75.9131 101.745 76.2837C96.246 79.9237 89.718 82.3477 82.87 83.2944C82.7767 83.3077 82.686 83.3131 82.5953 83.3131C81.6913 83.3131 80.8833 82.7024 80.6567 81.8064C80.118 79.6837 78.19 78.1984 75.974 78.1984C73.7287 78.1984 71.822 79.6517 71.23 81.8171ZM79.43 52.3344H72.5447C70.75 52.3344 69.2513 53.5611 68.8033 55.2171H83.1687C82.7207 53.5611 81.222 52.3344 79.43 52.3344Z" fill="white"/>
<defs>
<filter id="filter0_b_1831_12470" x="-60.4" y="-60.4" width="271.8" height="271.8" filterUnits="userSpaceOnUse" color-interpolation-filters="sRGB">
<feFlood flood-opacity="0" result="BackgroundImageFix"/>
<feGaussianBlur in="BackgroundImage" stdDeviation="30.2"/>
<feComposite in2="SourceAlpha" operator="in" result="effect1_backgroundBlur_1831_12470"/>
<feBlend mode="normal" in="SourceGraphic" in2="effect1_backgroundBlur_1831_12470" result="shape"/>
</filter>
</defs>
</svg>
