<svg width="152" height="152" viewBox="0 0 152 152" fill="none" xmlns="http://www.w3.org/2000/svg">
<g filter="url(#filter0_b_1989_12388)">
<circle cx="75.5039" cy="76.2465" r="75.5" fill="#C4C4C4" fill-opacity="0.1"/>
</g>
<path opacity="0.4" d="M87.1838 48.8262H64.8345C56.7278 48.8262 52.0078 53.5729 52.0078 61.7062V89.2529C52.0078 97.5196 56.7278 102.16 64.8345 102.16H87.1838C95.4211 102.16 100.008 97.5196 100.008 89.2529V61.7062C100.008 53.5729 95.4211 48.8262 87.1838 48.8262Z" fill="white"/>
<path fill-rule="evenodd" clip-rule="evenodd" d="M65.5544 61.2262V61.2529C64.405 61.2529 63.4744 62.1862 63.4744 63.3329C63.4744 64.4796 64.405 65.4129 65.5544 65.4129H73.525C74.6744 65.4129 75.6077 64.4796 75.6077 63.3036C75.6077 62.1596 74.6744 61.2262 73.525 61.2262H65.5544ZM86.461 77.4662H65.5544C64.405 77.4662 63.4744 76.5329 63.4744 75.3862C63.4744 74.2396 64.405 73.3036 65.5544 73.3036H86.461C87.6077 73.3036 88.541 74.2396 88.541 75.3862C88.541 76.5329 87.6077 77.4662 86.461 77.4662ZM86.461 89.6529H65.5544C64.7544 89.7596 63.981 89.3596 63.5544 88.6929C63.1277 87.9996 63.1277 87.1196 63.5544 86.4529C63.981 85.7596 64.7544 85.3862 65.5544 85.4662H86.461C87.525 85.5729 88.3277 86.4796 88.3277 87.5729C88.3277 88.6369 87.525 89.5462 86.461 89.6529Z" fill="white"/>
<defs>
<filter id="filter0_b_1989_12388" x="-60.3961" y="-59.6535" width="271.8" height="271.8" filterUnits="userSpaceOnUse" color-interpolation-filters="sRGB">
<feFlood flood-opacity="0" result="BackgroundImageFix"/>
<feGaussianBlur in="BackgroundImage" stdDeviation="30.2"/>
<feComposite in2="SourceAlpha" operator="in" result="effect1_backgroundBlur_1989_12388"/>
<feBlend mode="normal" in="SourceGraphic" in2="effect1_backgroundBlur_1989_12388" result="shape"/>
</filter>
</defs>
</svg>
