<svg width="32" height="32" viewBox="0 0 32 32" fill="none" xmlns="http://www.w3.org/2000/svg">
<path d="M15.9324 19.3866C11.3324 19.3866 7.45117 20.1382 7.45117 23.0392C7.45117 25.9414 11.3575 26.6667 15.9324 26.6667C20.5324 26.6667 24.4137 25.915 24.4137 23.014C24.4137 20.1118 20.5073 19.3866 15.9324 19.3866Z" fill="white"/>
<path opacity="0.4" d="M15.9322 16.6227C19.047 16.6227 21.5446 14.1108 21.5446 10.978C21.5446 7.84408 19.047 5.33333 15.9322 5.33333C12.8174 5.33333 10.3198 7.84408 10.3198 10.978C10.3198 14.1108 12.8174 16.6227 15.9322 16.6227Z" fill="white"/>
<path opacity="0.4" d="M28.1176 12.2923C28.9234 9.12239 26.5608 6.27543 23.5522 6.27543C23.2251 6.27543 22.9123 6.31145 22.6067 6.37269C22.5661 6.3823 22.5207 6.40271 22.4968 6.43873C22.4694 6.48436 22.4897 6.5456 22.5195 6.58522C23.4233 7.86041 23.9426 9.41297 23.9426 11.0796C23.9426 12.6766 23.4663 14.1655 22.6306 15.4011C22.5446 15.5283 22.621 15.7001 22.7726 15.7265C22.9827 15.7637 23.1976 15.7829 23.4173 15.7889C25.6081 15.8465 27.5744 14.4285 28.1176 12.2923Z" fill="white"/>
<path d="M30.4125 19.7559C30.0114 18.8962 29.0432 18.3066 27.5711 18.0172C26.8763 17.8467 24.996 17.6066 23.2469 17.639C23.2207 17.6426 23.2063 17.6606 23.204 17.6726C23.2004 17.6894 23.2075 17.7183 23.2422 17.7363C24.0504 18.1385 27.1748 19.888 26.782 23.5779C26.7653 23.7376 26.893 23.8757 27.0518 23.8516C27.8207 23.7412 29.7989 23.3137 30.4125 21.9821C30.7516 21.2785 30.7516 20.4608 30.4125 19.7559Z" fill="white"/>
<path opacity="0.4" d="M9.39311 6.37306C9.08867 6.31062 8.77468 6.27579 8.44756 6.27579C5.43901 6.27579 3.07634 9.12275 3.8834 12.2927C4.42541 14.4288 6.39172 15.8469 8.58247 15.7893C8.80214 15.7833 9.01823 15.7629 9.22716 15.7268C9.37878 15.7004 9.45519 15.5287 9.36923 15.4014C8.53352 14.1647 8.05717 12.6769 8.05717 11.08C8.05717 9.41213 8.5777 7.85957 9.48146 6.58559C9.51011 6.54596 9.5316 6.48472 9.50294 6.4391C9.47907 6.40187 9.43489 6.38266 9.39311 6.37306Z" fill="white"/>
<path d="M4.4289 18.0169C2.95686 18.3063 1.98983 18.8958 1.58869 19.7556C1.24843 20.4604 1.24843 21.2781 1.58869 21.9829C2.20234 23.3134 4.18058 23.742 4.94943 23.8513C5.10822 23.8753 5.23477 23.7384 5.21805 23.5775C4.82527 19.8888 7.94963 18.1394 8.75907 17.7371C8.7925 17.7179 8.79966 17.6903 8.79608 17.6723C8.79369 17.6603 8.78056 17.6423 8.7543 17.6399C7.00408 17.6062 5.12493 17.8464 4.4289 18.0169Z" fill="white"/>
</svg>
