<svg width="32" height="32" viewBox="0 0 32 32" fill="none" xmlns="http://www.w3.org/2000/svg">
<path opacity="0.4" d="M22.2339 2.66666H9.77762C5.23836 2.66666 2.6665 5.23852 2.6665 9.77778V22.2222C2.6665 26.7615 5.23836 29.3333 9.77762 29.3333H22.2339C26.7732 29.3333 29.3332 26.7615 29.3332 22.2222V9.77778C29.3332 5.23852 26.7732 2.66666 22.2339 2.66666Z" fill="white"/>
<path d="M9.82488 12.492C9.22043 12.492 8.72266 12.9897 8.72266 13.606V22.7675C8.72266 23.372 9.22043 23.8697 9.82488 23.8697C10.4412 23.8697 10.939 23.372 10.939 22.7675V13.606C10.939 12.9897 10.4412 12.492 9.82488 12.492Z" fill="white"/>
<path d="M16.047 8.11863C15.4426 8.11863 14.9448 8.61641 14.9448 9.23271V22.7675C14.9448 23.372 15.4426 23.8697 16.047 23.8697C16.6633 23.8697 17.1611 23.372 17.1611 22.7675V9.23271C17.1611 8.61641 16.6633 8.11863 16.047 8.11863Z" fill="white"/>
<path d="M22.1863 17.3275C21.57 17.3275 21.0723 17.8253 21.0723 18.4416V22.7675C21.0723 23.372 21.57 23.8697 22.1745 23.8697C22.7908 23.8697 23.2886 23.372 23.2886 22.7675V18.4416C23.2886 17.8253 22.7908 17.3275 22.1863 17.3275Z" fill="white"/>
</svg>
