<svg width="32" height="32" viewBox="0 0 32 32" fill="none" xmlns="http://www.w3.org/2000/svg">
<path opacity="0.4" d="M17.5872 21.0634L18.0234 25.9957C18.0234 27.1026 17.1173 28 15.9996 28C14.8819 28 13.9757 27.1026 13.9757 25.9957L14.4119 21.0634C14.4119 20.195 15.1228 19.491 15.9996 19.491C16.8779 19.491 17.5872 20.195 17.5872 21.0634Z" fill="url(#paint0_linear_2035_305)"/>
<path d="M17.5069 4.50035C17.5847 4.57744 17.9137 4.86544 18.1869 5.13598C19.8979 6.71414 22.6958 10.8348 23.552 12.9904C23.6886 13.3177 23.9794 14.1453 24 14.589C24 15.0122 23.9016 15.4166 23.7077 15.802C23.436 16.2835 23.0072 16.6675 22.5019 16.8798C22.1524 17.0151 21.1023 17.2275 21.0832 17.2275C19.9361 17.4384 18.0709 17.5533 16.0088 17.5533C14.0466 17.5533 12.2578 17.4384 11.0916 17.2653C11.071 17.2464 9.76831 17.034 9.32183 16.8027C8.50523 16.3795 8 15.5519 8 14.666V14.589C8.01909 14.0115 8.52579 12.7984 8.54342 12.7984C9.39967 10.7577 12.0624 6.7345 13.8322 5.11707C13.8322 5.11707 14.2875 4.66035 14.571 4.46253C14.9793 4.15417 15.4845 3.99999 15.9897 3.99999C16.5537 3.99999 17.078 4.17308 17.5069 4.50035Z" fill="url(#paint1_linear_2035_305)"/>
<defs>
<linearGradient id="paint0_linear_2035_305" x1="17.4715" y1="27.2345" x2="13.4061" y2="25.4716" gradientUnits="userSpaceOnUse">
<stop stop-color="#EDC764"/>
<stop offset="0.377665" stop-color="#CE770D"/>
<stop offset="0.63449" stop-color="#EDBE52"/>
</linearGradient>
<linearGradient id="paint1_linear_2035_305" x1="21.8182" y1="16.3341" x2="12.9718" y2="6.81394" gradientUnits="userSpaceOnUse">
<stop stop-color="#EDC764"/>
<stop offset="0.377665" stop-color="#CE770D"/>
<stop offset="0.63449" stop-color="#EDBE52"/>
</linearGradient>
</defs>
</svg>
