<svg width="84" height="84" viewBox="0 0 84 84" fill="none" xmlns="http://www.w3.org/2000/svg">
<path d="M84 42C84 53.8002 79.1282 64.4494 71.2985 72.0839C63.7343 79.4528 53.4075 83.9999 42 83.9999C18.7991 83.9999 0 65.1873 0 42C0 18.8014 18.7991 -7.62939e-06 42 -7.62939e-06C46.6039 -7.62939e-06 51.0352 0.749107 55.1918 2.118C71.9205 7.64354 84 23.4052 84 42Z" fill="url(#paint0_linear_1990_338)"/>
<path d="M32.0132 22.7278L33.4926 25.6766L30.8027 24.7877L31.6009 27.25L29.6268 26.1466L32.2969 32.4318L33.3771 34.9765C33.2551 35.2882 33.1726 35.6626 33.1726 36.1063C33.1726 37.4207 33.5503 40.0413 33.5915 40.3365L33.7383 41.3392L34.4293 41.8191L34.5613 43.249L34.6124 43.8015L34.906 44.2715L35.2952 44.8949L35.2177 45.7707L29.1997 47.0933L27.8407 47.3918L27.4548 48.7294L24.7814 58.0227L23.9238 61.0061H27.0293H57.2479H60.5233L59.4595 57.9106L56.265 48.6156L55.8378 47.3737L54.5564 47.0933L48.5384 45.7707L48.4609 44.8949L48.8501 44.2715L49.1437 43.8015L49.1948 43.249L49.3267 41.8307L50.0342 41.3392L50.181 40.3365C50.2222 40.0413 50.5999 37.4207 50.5999 36.1063C50.5999 35.5538 50.463 35.0475 50.2206 34.6203L50.4251 33.7396L49.871 32.9002C49.5527 32.417 46.6418 28.1306 43.0729 26.7981L37.6074 24.758L37.891 25.3484L32.0132 22.7278ZM37.0384 27.5287L42.7909 30.0932L42.2549 28.9882C45.2152 30.0932 47.9216 34.1899 47.9216 34.1899L47.5769 35.6676C47.6528 35.6379 47.7666 35.6049 47.8754 35.6049C48.07 35.6049 48.2613 35.7071 48.2613 36.1063C48.2613 37.2887 47.8655 40.0001 47.8655 40.0001L47.0986 40.5328L46.8677 43.0346L46.0646 44.321L46.3598 47.6838L54.055 49.3759L57.2479 58.6692H27.0293L29.701 49.3759L37.3963 47.6838L37.6931 44.321L36.8883 43.0346L36.6541 40.5212L35.9054 40.0001C35.9054 40.0001 35.5112 37.2887 35.5112 36.1063C35.5112 35.7071 35.7009 35.6049 35.8955 35.6049C36.0109 35.6049 36.128 35.6412 36.2055 35.6709L36.2039 35.6511L34.4475 31.5181L35.6597 32.1943L34.4475 28.4539L38.112 29.6661L37.0384 27.5287Z" fill="white"/>
<defs>
<linearGradient id="paint0_linear_1990_338" x1="-0.462724" y1="-11.471" x2="80.3139" y2="90.2478" gradientUnits="userSpaceOnUse">
<stop stop-color="white"/>
<stop offset="1" stop-color="#12110C"/>
</linearGradient>
</defs>
</svg>
