<svg width="152" height="151" viewBox="0 0 152 151" fill="none" xmlns="http://www.w3.org/2000/svg">
<g filter="url(#filter0_b_1831_12516)">
<circle cx="75.5039" cy="75.5" r="75.5" fill="#C4C4C4" fill-opacity="0.1"/>
</g>
<path opacity="0.4" d="M76.2342 101.667C75.904 101.667 75.5738 101.591 75.2758 101.437L65.6729 96.4656C62.948 95.0536 60.8164 93.4689 59.1519 91.6228C55.5089 87.5854 53.482 82.4027 53.4498 77.0264L53.337 59.3314C53.3236 57.2891 54.6417 55.4561 56.6123 54.7657L74.2449 48.6181C75.2919 48.2442 76.4597 48.2389 77.5255 48.5998L95.2253 54.5382C97.2066 55.1998 98.5462 57.0198 98.5569 59.0594L98.6697 76.7675C98.7046 82.1359 96.7475 87.3396 93.1608 91.4215C91.5151 93.2937 89.4023 94.9019 86.7043 96.3401L77.1873 101.423C76.892 101.583 76.5644 101.664 76.2342 101.667Z" fill="white"/>
<path d="M74.1876 81.1891C73.6721 81.1917 73.1567 81.006 72.7593 80.6243L67.6478 75.7082C66.8585 74.9447 66.8505 73.7052 67.6317 72.9364C68.4129 72.1651 69.6881 72.1572 70.4801 72.9181L74.158 76.4535L83.1381 67.5994C83.922 66.828 85.1972 66.8202 85.9865 67.5811C86.7785 68.3447 86.7865 69.5868 86.0053 70.3529L75.6077 80.606C75.2158 80.993 74.703 81.1865 74.1876 81.1891Z" fill="white"/>
<defs>
<filter id="filter0_b_1831_12516" x="-60.3961" y="-60.4" width="271.8" height="271.8" filterUnits="userSpaceOnUse" color-interpolation-filters="sRGB">
<feFlood flood-opacity="0" result="BackgroundImageFix"/>
<feGaussianBlur in="BackgroundImage" stdDeviation="30.2"/>
<feComposite in2="SourceAlpha" operator="in" result="effect1_backgroundBlur_1831_12516"/>
<feBlend mode="normal" in="SourceGraphic" in2="effect1_backgroundBlur_1831_12516" result="shape"/>
</filter>
</defs>
</svg>
