<svg width="151" height="151" viewBox="0 0 151 151" fill="none" xmlns="http://www.w3.org/2000/svg">
<g filter="url(#filter0_b_1989_12387)">
<circle cx="75.5" cy="75.5" r="75.5" fill="#C4C4C4" fill-opacity="0.1"/>
</g>
<path d="M101.147 49.8755C99.8139 48.5128 97.8406 48.0088 96.0006 48.5421L53.0939 60.9395C51.1526 61.4781 49.7766 63.0168 49.4059 64.9688C49.0273 66.9581 50.3499 69.4861 52.0779 70.5421L65.4939 78.7341C66.8699 79.5768 68.6459 79.3661 69.7846 78.2248L85.1473 62.8621C85.9206 62.0595 87.2006 62.0595 87.9739 62.8621C88.7473 63.6328 88.7473 64.8888 87.9739 65.6888L72.5846 81.0515C71.4433 82.1928 71.2299 83.9635 72.0699 85.3421L80.2673 98.8088C81.2273 100.406 82.8806 101.315 84.6939 101.315C84.9073 101.315 85.1473 101.315 85.3606 101.286C87.4406 101.022 89.0939 99.6061 89.7073 97.6061L102.427 55.0221C102.987 53.2088 102.481 51.2355 101.147 49.8755Z" fill="white"/>
<path opacity="0.4" fill-rule="evenodd" clip-rule="evenodd" d="M52.0355 87.8208C51.5235 87.8208 51.0115 87.6261 50.6221 87.2341C49.8408 86.4528 49.8408 85.1888 50.6221 84.4075L54.2621 80.7648C55.0435 79.9861 56.3101 79.9861 57.0915 80.7648C57.8701 81.5461 57.8701 82.8128 57.0915 83.5941L53.4488 87.2341C53.0595 87.6261 52.5475 87.8208 52.0355 87.8208ZM62.0653 91.0005C61.5533 91.0005 61.0413 90.8059 60.652 90.4139C59.8707 89.6325 59.8707 88.3685 60.652 87.5872L64.292 83.9445C65.0733 83.1659 66.34 83.1659 67.1213 83.9445C67.9 84.7259 67.9 85.9925 67.1213 86.7739L63.4787 90.4139C63.0893 90.8059 62.5773 91.0005 62.0653 91.0005ZM62.7419 100.515C63.1312 100.907 63.6432 101.102 64.1552 101.102C64.6672 101.102 65.1792 100.907 65.5685 100.515L69.2112 96.8752C69.9899 96.0939 69.9899 94.8272 69.2112 94.0459C68.4299 93.2672 67.1632 93.2672 66.3819 94.0459L62.7419 97.6885C61.9605 98.4699 61.9605 99.7339 62.7419 100.515Z" fill="white"/>
<defs>
<filter id="filter0_b_1989_12387" x="-60.4" y="-60.4" width="271.8" height="271.8" filterUnits="userSpaceOnUse" color-interpolation-filters="sRGB">
<feFlood flood-opacity="0" result="BackgroundImageFix"/>
<feGaussianBlur in="BackgroundImage" stdDeviation="30.2"/>
<feComposite in2="SourceAlpha" operator="in" result="effect1_backgroundBlur_1989_12387"/>
<feBlend mode="normal" in="SourceGraphic" in2="effect1_backgroundBlur_1989_12387" result="shape"/>
</filter>
</defs>
</svg>
