<svg width="151" height="152" viewBox="0 0 151 152" fill="none" xmlns="http://www.w3.org/2000/svg">
<g filter="url(#filter0_b_1989_12389)">
<circle cx="75.5" cy="76.2465" r="75.5" fill="#C4C4C4" fill-opacity="0.1"/>
</g>
<path d="M75.8649 82.2661C66.6649 82.2661 58.9023 83.7694 58.9023 89.5714C58.9023 95.3758 66.715 96.8263 75.8649 96.8263C85.0648 96.8263 92.8274 95.3229 92.8274 89.521C92.8274 83.7166 85.0147 82.2661 75.8649 82.2661Z" fill="white"/>
<path opacity="0.4" d="M75.8644 76.7383C82.094 76.7383 87.0892 71.7144 87.0892 65.449C87.0892 59.1811 82.094 54.1596 75.8644 54.1596C69.6348 54.1596 64.6396 59.1811 64.6396 65.449C64.6396 71.7144 69.6348 76.7383 75.8644 76.7383Z" fill="white"/>
<path opacity="0.4" d="M100.235 68.0776C101.847 61.7377 97.1216 56.0438 91.1044 56.0438C90.4502 56.0438 89.8246 56.1159 89.2134 56.2383C89.1322 56.2575 89.0414 56.2984 88.9937 56.3704C88.9388 56.4617 88.9794 56.5841 89.0391 56.6634C90.8466 59.2138 91.8852 62.3189 91.8852 65.6521C91.8852 68.8461 90.9325 71.824 89.2611 74.2951C89.0892 74.5496 89.242 74.893 89.5453 74.9459C89.9655 75.0203 90.3953 75.0588 90.8346 75.0708C95.2161 75.186 99.1487 72.3499 100.235 68.0776Z" fill="white"/>
<path d="M104.825 83.0048C104.023 81.2853 102.086 80.1062 99.1423 79.5274C97.7526 79.1864 93.9919 78.7061 90.4939 78.771C90.4413 78.7782 90.4127 78.8142 90.4079 78.8382C90.4007 78.8718 90.4151 78.9295 90.4843 78.9655C92.1008 79.77 98.3495 83.2689 97.564 90.6487C97.5305 90.9681 97.786 91.2443 98.1036 91.1962C99.6413 90.9753 103.598 90.1204 104.825 87.4571C105.503 86.0499 105.503 84.4145 104.825 83.0048Z" fill="white"/>
<path opacity="0.4" d="M62.7862 56.239C62.1773 56.1142 61.5494 56.0445 60.8951 56.0445C54.878 56.0445 50.1527 61.7384 51.7668 68.0784C52.8508 72.3506 56.7834 75.1867 61.1649 75.0715C61.6043 75.0595 62.0365 75.0186 62.4543 74.9466C62.7576 74.8938 62.9104 74.5504 62.7385 74.2958C61.067 71.8223 60.1143 68.8468 60.1143 65.6529C60.1143 62.3172 61.1554 59.2121 62.9629 56.6641C63.0202 56.5849 63.0632 56.4624 63.0059 56.3711C62.9581 56.2967 62.8698 56.2583 62.7862 56.239Z" fill="white"/>
<path d="M52.8578 79.5267C49.9137 80.1055 47.9797 81.2846 47.1774 83.0041C46.4969 84.4137 46.4969 86.0491 47.1774 87.4588C48.4047 90.1197 52.3612 90.977 53.8989 91.1955C54.2164 91.2435 54.4695 90.9698 54.4361 90.648C53.6505 83.2706 59.8993 79.7717 61.5181 78.9672C61.585 78.9287 61.5993 78.8735 61.5922 78.8375C61.5874 78.8135 61.5611 78.7774 61.5086 78.7726C58.0082 78.7054 54.2499 79.1857 52.8578 79.5267Z" fill="white"/>
<defs>
<filter id="filter0_b_1989_12389" x="-60.4" y="-59.6535" width="271.8" height="271.8" filterUnits="userSpaceOnUse" color-interpolation-filters="sRGB">
<feFlood flood-opacity="0" result="BackgroundImageFix"/>
<feGaussianBlur in="BackgroundImage" stdDeviation="30.2"/>
<feComposite in2="SourceAlpha" operator="in" result="effect1_backgroundBlur_1989_12389"/>
<feBlend mode="normal" in="SourceGraphic" in2="effect1_backgroundBlur_1989_12389" result="shape"/>
</filter>
</defs>
</svg>
