<svg width="22" height="32" viewBox="0 0 22 32" fill="none" xmlns="http://www.w3.org/2000/svg">
<path d="M4.1969 -7.08003e-06L2.5779 3.73499H0.170898V7.09399H1.0919L2.0349 13.069H0.561898L2.5099 24.042L3.7589 24.027L5.0149 32H16.9059L16.9889 31.469L18.1609 24.026L19.3489 24.041L21.2919 13.068H19.8849L20.8219 7.09299H21.8329V3.73399H19.2759L17.6509 -0.00100708L4.1969 -7.08003e-06ZM4.9009 1.07299H16.9579L17.9829 3.44799H3.8679L4.9009 1.07299ZM1.2349 4.80299H20.7599V6.03099H1.2349V4.80299ZM1.8389 14.136H20.0219L18.4539 22.959L10.9179 22.88L3.4069 22.959L1.8389 14.136Z" fill="white"/>
</svg>
