<svg width="64" height="65" viewBox="0 0 64 65" fill="none" xmlns="http://www.w3.org/2000/svg">
<g clip-path="url(#clip0_5636_7282)">
<path d="M32.0958 0.624855V0.656382C32.1273 0.814017 32.1273 1.00318 32.1273 1.19234V23.9234C32.0958 24.0495 32.0012 24.081 31.9066 24.1441C31.2445 24.4593 30.614 24.7431 29.9519 25.0268C29.0376 25.4367 28.0918 25.8781 27.1775 26.2879L23.8672 27.8012C22.9529 28.2111 22.0386 28.6209 21.1559 29.0308C20.0839 29.5352 18.9805 30.0081 17.9086 30.5125C16.9943 30.9224 16.08 31.3638 15.1342 31.7736C14.3775 32.1204 13.6209 32.4357 12.8958 32.7825C12.8327 32.814 12.7697 32.8455 12.7066 32.8455C12.6751 32.8455 12.6751 32.8455 12.6436 32.814L13.4948 31.3953C15.1342 28.684 16.7421 26.0042 18.3815 23.2928C20.1155 20.3923 21.881 17.4919 23.615 14.5914C25.2229 11.9116 26.8623 9.23175 28.4702 6.55195C29.6367 4.59727 30.8347 2.64259 32.0012 0.687909C32.0327 0.624855 32.0642 0.593328 32.0642 0.530273H32.0958C32.0642 0.561801 32.0958 0.593328 32.0958 0.624855Z" fill="#8A92B2"/>
<path d="M51.4522 32.8145L51.4837 32.846L46.8492 35.5889L32.2837 44.1958C32.2207 44.2273 32.1576 44.2588 32.1261 44.2903C32.0315 44.2903 32.0315 44.1958 32.0315 44.1642V43.8805V24.3968C32.0315 24.3022 32.0315 24.1761 32.063 24.0815C32.0945 23.9554 32.1891 23.9869 32.2837 24.0184C32.6936 24.2076 33.1349 24.3968 33.5448 24.5859C34.7744 25.1534 36.0039 25.7209 37.2335 26.2569C38.3054 26.7298 39.3458 27.2342 40.4177 27.7071C41.4896 28.18 42.5615 28.6844 43.6335 29.1573C44.5478 29.5672 45.4936 30.0086 46.4079 30.4184C47.3221 30.8283 48.268 31.2697 49.1822 31.6795C49.9074 31.9948 50.6325 32.3416 51.3576 32.6569C51.3576 32.7514 51.3891 32.783 51.4522 32.8145Z" fill="#454A75"/>
<path d="M32.0943 63.8686C32.0943 63.9001 32.0628 63.9317 32.0628 63.9632H32.0312C32.0312 63.9001 31.9682 63.8686 31.9367 63.8055C29.982 61.0627 28.0273 58.2883 26.0726 55.5454C24.0864 52.7395 22.0687 49.9021 20.0825 47.0962C18.1593 44.3849 16.2047 41.642 14.2815 38.9307C13.7771 38.2055 13.2726 37.5119 12.7682 36.7868C12.7367 36.7238 12.7051 36.6922 12.6421 36.5977C12.7367 36.5977 12.7997 36.6607 12.8313 36.6922C15.5741 38.3001 18.2854 39.908 21.0283 41.5159C24.181 43.376 27.3022 45.2361 30.4549 47.0962L32.0628 48.042C32.1258 48.105 32.1258 48.1681 32.1258 48.2312V63.4272C32.1258 63.5849 32.1258 63.7425 32.0943 63.8686Z" fill="#8A92B2"/>
<path d="M12.6108 32.877V32.8454C13.6197 32.4041 14.597 31.9312 15.6059 31.4898C16.8985 30.8908 18.1911 30.3233 19.4837 29.7243C20.4611 29.2829 21.47 28.81 22.4473 28.3686C23.8975 27.7065 25.3163 27.076 26.7665 26.4139C27.7438 25.9725 28.7212 25.5312 29.7301 25.0582C30.4236 24.743 31.1488 24.4277 31.8424 24.1124C31.9054 24.0809 32 24.0494 32.0315 23.9863C32.0631 23.9863 32.0631 24.0179 32.0315 24.0494V44.0691C32.0315 44.1637 32 44.2582 32.0631 44.3213C32 44.4159 31.9369 44.3213 31.9054 44.2898C31.6217 44.1321 31.3379 43.9745 31.0542 43.7853C24.9695 40.1913 18.8532 36.5656 12.7685 32.9715C12.7369 32.94 12.6739 32.9085 12.6108 32.877Z" fill="#62688F"/>
<path d="M51.3891 36.5977H51.4206C51.4206 36.6607 51.3576 36.7238 51.326 36.7868C45.5251 44.9523 39.7241 53.1494 33.9231 61.3149C33.3241 62.1661 32.6935 63.0174 32.0945 63.8686C32.063 63.8371 32.063 63.8055 32.063 63.774V63.5849V48.2942V48.0105C33.3871 47.2223 34.6797 46.4656 36.0039 45.6775C41.1113 42.6509 46.2187 39.6558 51.2945 36.6292C51.326 36.6607 51.3576 36.6292 51.3891 36.5977Z" fill="#62688F"/>
<path d="M32.0631 24.0494V23.9863V23.7971V0.908467C32.0631 0.813885 32.0315 0.750831 32.0946 0.65625C38.4946 11.2809 44.8946 21.874 51.2631 32.4986C51.3261 32.5932 51.4207 32.7193 51.4522 32.8454C51.0108 32.6878 50.601 32.4671 50.1911 32.2779C49.6867 32.0572 49.1507 31.805 48.6463 31.5843C48.331 31.4267 47.9842 31.3006 47.669 31.1429C47.133 30.8907 46.597 30.67 46.0611 30.4178C45.7458 30.2917 45.4305 30.1341 45.1153 29.9764L43.0345 29.0306C42.6877 28.873 42.3409 28.7154 41.9626 28.5577L40.4493 27.8957C40.134 27.7695 39.8187 27.6119 39.5035 27.4543L37.4227 26.5085C37.0759 26.3508 36.7291 26.1932 36.3507 26.0356L34.8374 25.3735C34.4906 25.2159 34.1754 25.0582 33.8286 24.9006C33.2296 24.6168 32.6305 24.3331 32 24.0809C32.0946 24.0494 32.0631 24.0494 32.0631 24.0494Z" fill="#62688F"/>
</g>
<defs>
<clipPath id="clip0_5636_7282">
<rect width="64" height="64" fill="white" transform="translate(0 0.27832)"/>
</clipPath>
</defs>
</svg>
