<svg width="32" height="32" viewBox="0 0 32 32" fill="none" xmlns="http://www.w3.org/2000/svg">
<path d="M22.3812 14.4897L13.2504 20.1153C13.0459 20.2406 12.7841 20.2286 12.5926 20.0806C11.7251 19.4126 10.9501 18.7352 10.433 18.1658C10.433 18.1658 9.98753 17.7098 9.79476 17.4205C9.48345 17.0258 9.33366 16.5098 9.33366 16.0084C9.33366 15.4457 9.49778 14.9137 9.82472 14.4883C9.89896 14.4123 10.1816 14.0776 10.4486 13.8043C12.0065 12.1029 16.073 9.29206 18.2118 8.44002C18.5231 8.30268 19.3541 8.016 19.7852 8C20.2008 8 20.6019 8.09067 20.9875 8.28935C21.4616 8.56269 21.8328 8.98672 22.0412 9.48941C22.1754 9.83876 22.3825 10.8868 22.3825 10.9175C22.5167 11.6655 22.617 12.7162 22.6665 13.943C22.6756 14.163 22.5649 14.3763 22.3812 14.4897" fill="white"/>
<path opacity="0.4" d="M21.7709 17.5197C22.1734 17.2703 22.6801 17.589 22.6606 18.0677C22.6124 19.1904 22.529 20.1798 22.4274 20.9159C22.4118 20.9319 22.2047 22.2373 21.9663 22.6786C21.5508 23.4987 20.7354 24 19.8588 24H19.7859C19.2206 23.9853 18.0183 23.484 18.0183 23.4533C17.4126 23.2013 16.622 22.7746 15.7714 22.2613C15.3885 22.0293 15.3794 21.4599 15.7623 21.2239L21.7709 17.5197Z" fill="white"/>
</svg>
