<svg width="32" height="32" viewBox="0 0 32 32" fill="none" xmlns="http://www.w3.org/2000/svg">
<path d="M15.9314 19.3866C11.3315 19.3866 7.4502 20.1382 7.4502 23.0392C7.4502 25.9414 11.3565 26.6667 15.9314 26.6667C20.5314 26.6667 24.4127 25.915 24.4127 23.014C24.4127 20.1118 20.5064 19.3866 15.9314 19.3866Z" fill="url(#paint0_linear_2035_154)"/>
<path opacity="0.4" d="M15.9317 16.6227C19.0465 16.6227 21.5441 14.1108 21.5441 10.978C21.5441 7.84408 19.0465 5.33333 15.9317 5.33333C12.8169 5.33333 10.3193 7.84408 10.3193 10.978C10.3193 14.1108 12.8169 16.6227 15.9317 16.6227Z" fill="url(#paint1_linear_2035_154)"/>
<path opacity="0.4" d="M28.1171 12.2923C28.923 9.12239 26.5603 6.27543 23.5517 6.27543C23.2246 6.27543 22.9118 6.31145 22.6062 6.37269C22.5656 6.3823 22.5202 6.40271 22.4964 6.43873C22.4689 6.48436 22.4892 6.5456 22.519 6.58522C23.4228 7.86041 23.9421 9.41297 23.9421 11.0796C23.9421 12.6766 23.4658 14.1655 22.6301 15.4011C22.5441 15.5283 22.6205 15.7001 22.7721 15.7265C22.9823 15.7637 23.1972 15.7829 23.4168 15.7889C25.6076 15.8465 27.5739 14.4285 28.1171 12.2923Z" fill="url(#paint2_linear_2035_154)"/>
<path d="M30.4116 19.7559C30.0104 18.8962 29.0422 18.3066 27.5702 18.0172C26.8753 17.8467 24.995 17.6066 23.246 17.639C23.2197 17.6426 23.2054 17.6606 23.203 17.6726C23.1994 17.6894 23.2066 17.7183 23.2412 17.7363C24.0494 18.1385 27.1738 19.888 26.781 23.5779C26.7643 23.7376 26.892 23.8757 27.0508 23.8516C27.8197 23.7412 29.7979 23.3137 30.4116 21.9821C30.7506 21.2785 30.7506 20.4608 30.4116 19.7559Z" fill="url(#paint3_linear_2035_154)"/>
<path opacity="0.4" d="M9.39311 6.37306C9.08867 6.31062 8.77468 6.27579 8.44756 6.27579C5.43901 6.27579 3.07634 9.12275 3.8834 12.2927C4.42541 14.4288 6.39172 15.8469 8.58247 15.7893C8.80214 15.7833 9.01823 15.7629 9.22716 15.7268C9.37878 15.7004 9.45519 15.5287 9.36923 15.4014C8.53352 14.1647 8.05717 12.6769 8.05717 11.08C8.05717 9.41213 8.5777 7.85957 9.48146 6.58559C9.51011 6.54596 9.5316 6.48472 9.50294 6.4391C9.47907 6.40187 9.43489 6.38266 9.39311 6.37306Z" fill="url(#paint4_linear_2035_154)"/>
<path d="M4.42842 18.0169C2.95637 18.3063 1.98934 18.8958 1.5882 19.7556C1.24794 20.4604 1.24794 21.2781 1.5882 21.9829C2.20185 23.3134 4.18009 23.742 4.94894 23.8513C5.10773 23.8753 5.23428 23.7384 5.21756 23.5775C4.82478 19.8888 7.94914 18.1394 8.75858 17.7371C8.79201 17.7179 8.79917 17.6903 8.79559 17.6723C8.79321 17.6603 8.78007 17.6423 8.75381 17.6399C7.00359 17.6062 5.12444 17.8464 4.42842 18.0169Z" fill="url(#paint5_linear_2035_154)"/>
<defs>
<linearGradient id="paint0_linear_2035_154" x1="9.76327" y1="20.0415" x2="13.4357" y2="27.8417" gradientUnits="userSpaceOnUse">
<stop stop-color="#EDC764"/>
<stop offset="0.377665" stop-color="#CE770D"/>
<stop offset="0.63449" stop-color="#EDBE52"/>
</linearGradient>
<linearGradient id="paint1_linear_2035_154" x1="11.85" y1="6.3489" x2="19.203" y2="13.0135" gradientUnits="userSpaceOnUse">
<stop stop-color="#EDC764"/>
<stop offset="0.377665" stop-color="#CE770D"/>
<stop offset="0.63449" stop-color="#EDBE52"/>
</linearGradient>
<linearGradient id="paint2_linear_2035_154" x1="23.2734" y1="7.1314" x2="28.558" y2="10.0643" gradientUnits="userSpaceOnUse">
<stop stop-color="#EDC764"/>
<stop offset="0.377665" stop-color="#CE770D"/>
<stop offset="0.63449" stop-color="#EDBE52"/>
</linearGradient>
<linearGradient id="paint3_linear_2035_154" x1="24.2199" y1="18.1954" x2="28.2732" y2="22.6304" gradientUnits="userSpaceOnUse">
<stop stop-color="#EDC764"/>
<stop offset="0.377665" stop-color="#CE770D"/>
<stop offset="0.63449" stop-color="#EDBE52"/>
</linearGradient>
<linearGradient id="paint4_linear_2035_154" x1="4.51357" y1="7.13176" x2="9.79808" y2="10.0645" gradientUnits="userSpaceOnUse">
<stop stop-color="#EDC764"/>
<stop offset="0.377665" stop-color="#CE770D"/>
<stop offset="0.63449" stop-color="#EDBE52"/>
</linearGradient>
<linearGradient id="paint5_linear_2035_154" x1="2.35075" y1="18.196" x2="6.40338" y2="22.6307" gradientUnits="userSpaceOnUse">
<stop stop-color="#EDC764"/>
<stop offset="0.377665" stop-color="#CE770D"/>
<stop offset="0.63449" stop-color="#EDBE52"/>
</linearGradient>
</defs>
</svg>
