<svg width="32" height="32" viewBox="0 0 32 32" fill="none" xmlns="http://www.w3.org/2000/svg">
<path d="M22.3807 14.4897L13.2499 20.1153C13.0454 20.2406 12.7836 20.2286 12.5921 20.0806C11.7246 19.4126 10.9496 18.7352 10.4325 18.1658C10.4325 18.1658 9.98705 17.7098 9.79427 17.4205C9.48296 17.0258 9.33317 16.5098 9.33317 16.0084C9.33317 15.4457 9.49729 14.9137 9.82423 14.4883C9.89847 14.4123 10.1811 14.0776 10.4481 13.8043C12.006 12.1029 16.0725 9.29206 18.2113 8.44002C18.5226 8.30268 19.3536 8.016 19.7848 8C20.2003 8 20.6015 8.09067 20.987 8.28935C21.4611 8.56269 21.8324 8.98672 22.0408 9.48941C22.1749 9.83876 22.382 10.8868 22.382 10.9175C22.5162 11.6655 22.6165 12.7162 22.666 13.943C22.6751 14.163 22.5644 14.3763 22.3807 14.4897Z" fill="url(#paint0_linear_1970_167)"/>
<path opacity="0.4" d="M21.77 17.5197C22.1725 17.2703 22.6791 17.589 22.6596 18.0677C22.6114 19.1904 22.5281 20.1798 22.4265 20.9159C22.4108 20.9319 22.2037 22.2373 21.9654 22.6786C21.5498 23.4987 20.7345 24 19.8578 24H19.7849C19.2196 23.9853 18.0174 23.484 18.0174 23.4533C17.4117 23.2013 16.621 22.7746 15.7705 22.2613C15.3875 22.0293 15.3784 21.4599 15.7614 21.2239L21.77 17.5197Z" fill="url(#paint1_linear_1970_167)"/>
<defs>
<linearGradient id="paint0_linear_1970_167" x1="21.4671" y1="9.6638" x2="14.3057" y2="18.2486" gradientUnits="userSpaceOnUse">
<stop stop-color="#EDC764"/>
<stop offset="0.377665" stop-color="#CE770D"/>
<stop offset="0.63449" stop-color="#EDBE52"/>
</linearGradient>
<linearGradient id="paint1_linear_1970_167" x1="22.0141" y1="18.3282" x2="18.16" y2="22.9516" gradientUnits="userSpaceOnUse">
<stop stop-color="#EDC764"/>
<stop offset="0.377665" stop-color="#CE770D"/>
<stop offset="0.63449" stop-color="#EDBE52"/>
</linearGradient>
</defs>
</svg>
