<svg width="140" height="120" viewBox="0 0 140 120" fill="none" xmlns="http://www.w3.org/2000/svg">
<g clip-path="url(#clip0_5123_24459)">
<path d="M26.5246 47.6575C25.6078 47.1772 24.912 46.3611 24.5834 45.38C24.3939 44.7813 24.3536 44.1453 24.4661 43.5278C24.5785 42.91 24.8401 42.3293 25.2282 41.8356C25.6159 41.3419 26.1187 40.9506 26.6926 40.6955C27.2662 40.4407 27.8934 40.3296 28.5197 40.3722C29.1463 40.4147 29.7527 40.6097 30.2867 40.9402C30.8203 41.2704 31.2656 41.7264 31.5831 42.2678C31.9006 42.8096 32.081 43.4206 32.1089 44.0478C32.1365 44.675 32.0104 45.2994 31.7417 45.8668C31.3231 46.7066 30.6276 47.376 29.7725 47.7625C29.7725 57.4566 29.7725 67.1369 29.7725 76.8031C29.7725 76.8346 29.8076 76.8697 29.8356 76.9224C30.0355 76.9224 30.1859 76.7891 30.3296 76.7014L36.5353 73.145C38.4342 72.0494 40.3322 70.9493 42.2292 69.8444C42.3764 69.7602 42.52 69.6692 42.6741 69.599C42.9107 69.4768 43.1791 69.4313 43.4427 69.4683C43.7062 69.5054 43.9519 69.623 44.1456 69.8057C44.3861 70.0104 44.6468 70.1898 44.9237 70.3419L56.5285 77.0764L57.1521 77.4267C57.9542 77.0455 58.8622 76.9487 59.7264 77.1525C60.5909 77.3562 61.3601 77.8483 61.9071 78.5476C62.4544 79.247 62.7469 80.1118 62.7368 81C62.7267 81.8879 62.4141 82.7459 61.8512 83.4326C61.3319 84.0641 60.6263 84.5155 59.8353 84.7218C59.0442 84.9285 58.208 84.8795 57.4466 84.5818C56.573 84.236 55.858 83.5795 55.4388 82.7387C55.0033 81.9012 54.8791 80.9367 55.0884 80.0163C50.9467 77.5951 46.8226 75.1703 42.6669 72.8015C42.4953 72.896 42.3481 72.9698 42.2009 73.054L34.6887 77.3813C33.0452 78.3309 31.3809 79.2522 29.7833 80.2581C28.795 80.8746 27.912 80.4963 27.3302 79.7813C26.8336 79.17 26.5551 78.4105 26.5385 77.623C26.5385 77.4128 26.5385 77.2025 26.5385 76.9887V47.6575H26.5246Z" fill="white"/>
<path d="M53.4784 37.0542C53.5583 38.1254 53.2135 39.1852 52.5183 40.0045C51.9792 40.6454 51.2375 41.0828 50.416 41.2447C49.6162 41.4228 48.7806 41.3399 48.0312 41.0081C47.2821 40.6763 46.6591 40.1134 46.2531 39.4016C45.8391 38.6834 45.663 37.8521 45.7504 37.0276C45.8381 36.2027 46.1846 35.427 46.7403 34.8115C47.3714 34.116 48.235 33.675 49.1683 33.5713C50.1076 33.4764 51.0507 33.7117 51.8349 34.2369C56.0396 31.8612 60.1498 29.3945 64.351 26.9873C64.351 26.7559 64.351 26.5284 64.351 26.2866V12.1832C64.351 11.9905 64.351 11.8014 64.351 11.6119C64.3698 11.1745 64.5551 10.7604 64.869 10.4549C65.1829 10.1494 65.6019 9.97557 66.04 9.96875C66.3552 9.96875 66.6704 9.96875 66.986 9.96875C67.5596 9.98532 68.1189 10.152 68.6084 10.4523C69.754 11.1215 70.8963 11.7978 72.0455 12.467C73.195 13.1361 74.309 13.7773 75.4446 14.4293C77.4696 15.5973 79.4972 16.7653 81.5271 17.933L91.871 23.9388C94.2606 25.3266 96.648 26.7162 99.0328 28.1085C99.1764 28.1927 99.3168 28.2837 99.4605 28.3714C98.6461 29.1592 97.7826 29.894 96.8745 30.5719C96.7273 30.5017 96.559 30.4283 96.4013 30.337C94.7406 29.3734 93.0868 28.3994 91.4257 27.4358C89.765 26.4722 88.1007 25.5193 86.4397 24.5557L76.0435 18.5183L68.5453 14.1628C68.3701 14.0578 68.1947 13.9632 68.0266 13.8755C67.855 13.9457 67.8898 14.0649 67.8866 14.1595C67.8866 14.3906 67.8866 14.6256 67.8866 14.8602C67.8866 19.233 67.8866 23.6048 67.8866 27.9753V28.6763L53.4784 37.0542Z" fill="white"/>
<path d="M65.1807 98.2681V84.0981C65.5766 83.8528 65.9584 83.597 66.3546 83.3656C69.3913 81.5882 72.4371 79.8164 75.4927 78.0504C78.9965 76.0156 82.5005 73.9821 86.0046 71.9499C86.9331 71.4069 87.8544 70.8531 88.8076 70.2856C89.7573 70.9269 90.612 71.687 91.5093 72.388C91.4531 72.6191 91.2428 72.6506 91.092 72.7384L83.4186 77.1777C79.8609 79.2382 76.3032 81.3032 72.7456 83.3727C71.4141 84.1472 70.093 84.9356 68.7582 85.7205C68.688 85.9399 68.6702 86.1726 68.7056 86.4C68.7056 90.9412 68.7056 95.4823 68.7056 100.023V100.595C68.7209 100.913 68.652 101.23 68.5054 101.513C68.3591 101.796 68.1404 102.035 67.8717 102.206C67.7365 102.305 67.5808 102.37 67.416 102.399C66.6399 102.537 65.8401 102.398 65.156 102.006C64.6585 101.726 64.1785 101.418 63.688 101.134C60.6747 99.3939 57.6601 97.6526 54.6442 95.91C51.1193 93.8706 47.5967 91.8277 44.0764 89.7816C40.9415 87.9594 37.8044 86.1348 34.665 84.3084C34.0481 83.9581 33.456 83.5551 32.8674 83.1872C32.8642 83.1534 32.8642 83.1193 32.8674 83.0855C32.8717 83.0666 32.883 83.0504 32.899 83.04L35.9262 81.2879C45.6321 86.9399 55.366 92.5495 65.1807 98.2681Z" fill="white"/>
<path d="M103.927 77.5101C102.998 76.771 102.063 76.0911 101.145 75.3905C100.226 74.6895 99.2911 73.9888 98.3659 73.2881C97.4409 72.5871 96.4913 71.8477 95.5628 71.1295C94.6343 70.4113 93.7162 69.7281 92.7913 69.0271L89.9882 66.9248V57.5309C89.5037 57.3076 89.0685 56.9904 88.7074 56.5975C88.3467 56.2049 88.0672 55.7444 87.8859 55.2426C87.6964 54.7519 87.6086 54.2276 87.6285 53.7018C87.6483 53.176 87.775 52.6596 88.0009 52.1844C88.2268 51.709 88.5472 51.2848 88.9421 50.9374C89.3373 50.5897 89.7991 50.3264 90.2996 50.1633C90.7997 50.0001 91.3278 49.9404 91.8521 49.9881C92.3759 50.0359 92.8849 50.1896 93.3473 50.4402C93.8101 50.6911 94.217 51.0333 94.543 51.4464C94.869 51.8594 95.1075 52.3342 95.244 52.8425C95.5063 53.7213 95.4439 54.6651 95.0688 55.5019C94.7035 56.3352 94.0627 57.017 93.2537 57.4327C93.1803 57.9303 93.1696 64.2478 93.2537 64.8854C93.7653 65.2884 94.2875 65.7125 94.8235 66.1191C97.0591 67.8217 99.2944 69.5201 101.53 71.2137C103.282 72.5452 105.013 73.8871 106.761 75.2153C107.025 75.3921 107.24 75.6329 107.385 75.9156C107.531 76.1981 107.601 76.513 107.592 76.8305C107.591 76.9784 107.571 77.1256 107.532 77.2686C107.288 78.121 106.913 78.9306 106.421 79.6687C106.247 79.9546 106.007 80.1951 105.721 80.3693C105.518 80.485 105.328 80.6147 105.125 80.7197C103.685 81.5572 102.241 82.3875 100.798 83.225L90.321 89.3043L80.2508 95.1526L74.5076 98.4883L74.0243 98.7545C73.9911 98.654 73.9678 98.551 73.9541 98.446C73.9541 97.4135 73.9541 96.3788 73.9541 95.3417C73.9541 95.2611 73.9541 95.1769 73.9752 95.072C74.1504 94.9634 74.3256 94.8513 74.5076 94.746C77.2853 93.1412 80.0614 91.5377 82.8365 89.9352C86.3405 87.9053 89.8443 85.8731 93.3483 83.8383C96.6701 81.9111 99.9895 79.9816 103.306 78.0499C103.527 77.9446 103.786 77.8572 103.927 77.5101Z" fill="white"/>
<path d="M52.5316 60.9369C52.5316 61.1612 52.5105 61.3646 52.5105 61.5713V66.7046C52.5105 66.9148 52.5105 67.1251 52.5105 67.3354C52.4595 67.7449 52.2593 68.1215 51.948 68.3929C51.6369 68.6643 51.2366 68.8115 50.8238 68.806C50.4111 68.8008 50.0146 68.6438 49.7104 68.3646C49.4062 68.0855 49.2154 67.7039 49.1748 67.2931C49.1748 67.1076 49.1748 66.9148 49.1748 66.7257V45.702C49.1748 45.5128 49.1748 45.3237 49.1748 45.1342C49.2047 44.7172 49.3899 44.3263 49.6935 44.0387C49.997 43.751 50.3974 43.5876 50.8154 43.5801C51.2336 43.5726 51.6395 43.7218 51.9532 43.9984C52.2668 44.2749 52.4657 44.6591 52.5105 45.0747C52.5209 45.2652 52.5209 45.4556 52.5105 45.6461V49.1953C52.5105 49.3987 52.5105 49.6054 52.5316 49.8963C52.7136 49.791 52.8433 49.7351 52.9519 49.6545C54.8092 48.2528 56.6639 46.8511 58.5164 45.4498C59.8826 44.4195 61.2505 43.3942 62.6194 42.3734C62.7734 42.2613 62.9278 42.1492 63.0854 42.0439C63.4738 41.7887 63.9311 41.6578 64.3958 41.6691C69.2733 41.6899 74.1521 41.7029 79.0318 41.7075C79.2002 41.7003 79.3692 41.7075 79.5362 41.7286C79.8495 41.7881 80.1342 41.9496 80.3457 42.1882C80.5576 42.4264 80.6844 42.728 80.7065 43.0461C80.7205 43.3438 80.6356 43.6379 80.4654 43.8823C80.2947 44.1271 80.0484 44.3084 79.764 44.3984C79.5355 44.4592 79.2993 44.4852 79.0633 44.4758C77.0169 44.4758 74.9671 44.4758 72.921 44.4758C70.258 44.4758 67.5983 44.4758 64.9389 44.4758C64.5576 44.4605 64.1839 44.585 63.8878 44.8261C62.686 45.751 61.4595 46.6516 60.2473 47.5697L52.868 53.1407C52.7523 53.2285 52.6438 53.3266 52.5177 53.4316C52.5177 53.5544 52.4894 53.6769 52.4894 53.803C52.4894 54.8544 52.4894 55.9054 52.4894 56.9568C52.4764 57.102 52.505 57.2483 52.5719 57.3779C52.6389 57.5076 52.7416 57.6155 52.868 57.689C53.271 57.9587 53.6457 58.2707 54.0312 58.5616L63.0994 65.4712C63.4848 65.7653 63.8703 66.0598 64.2417 66.375C64.4676 66.5645 64.7565 66.662 65.051 66.6483C67.6265 66.6483 70.2018 66.6483 72.7773 66.6483H79.4348C79.6236 66.6418 79.8128 66.6548 79.999 66.687C80.3302 66.7478 80.6272 66.9295 80.8316 67.1969C81.0364 67.4644 81.1342 67.7985 81.1059 68.1342C81.0848 68.4527 80.9532 68.7543 80.7338 68.9863C80.5144 69.2184 80.2213 69.3669 79.9041 69.4062C79.7562 69.4166 79.6074 69.4166 79.4592 69.4062C74.5817 69.4062 69.7042 69.4062 64.8267 69.4062C64.3197 69.4104 63.828 69.2311 63.4429 68.9015C62.4163 68.092 61.3406 67.3422 60.2892 66.5645C57.895 64.7936 55.5004 63.0253 53.1062 61.2593C52.945 61.1264 52.8082 60.9441 52.5316 60.9369Z" fill="white"/>
<path d="M43.6878 64.6581C42.6757 65.3682 41.6137 66.0039 40.5097 66.5606C40.5097 66.5606 40.4746 66.543 40.4642 66.529C40.4606 66.5082 40.4606 66.4868 40.4642 66.466C40.4622 66.4449 40.4622 66.4237 40.4642 66.4029V43.8518C40.4596 43.8134 40.4515 43.776 40.4395 43.7396C40.317 43.6555 40.1697 43.5469 40.0085 43.4556L27.7765 36.3708C27.534 36.2421 27.3052 36.0893 27.093 35.9151C26.8213 35.7084 26.6241 35.4189 26.5318 35.09C26.4395 34.7611 26.457 34.4111 26.5815 34.0932C26.6978 33.7318 26.8431 33.3802 27.016 33.0419C27.2919 32.5385 27.7017 32.1215 28.2003 31.8368C28.4876 31.6613 28.782 31.4861 29.0765 31.3285L40.9546 24.44L51.1161 18.5287C53.6341 17.0666 56.1512 15.6028 58.667 14.1384C58.8457 14.0367 59.0173 13.9457 59.2487 13.8264C59.3144 14.037 59.3358 14.259 59.3117 14.4783C59.3117 14.6675 59.3117 14.8566 59.3117 15.0494V17.4706C58.6705 17.8596 58.0469 18.2486 57.4092 18.6165C54.4892 20.3077 51.5691 21.9954 48.6494 23.6795L37.9309 29.906L31.1473 33.8514C31.0037 33.9356 30.8633 34.0302 30.716 34.1248C30.7476 34.1833 30.7879 34.2362 30.8353 34.2824C30.9578 34.363 31.0875 34.4332 31.2172 34.5066L42.3806 40.9853L42.7661 41.206C43.0095 41.3367 43.2152 41.5274 43.3641 41.7598C43.5132 41.9922 43.6003 42.2587 43.6176 42.5342C43.6458 42.8284 43.6842 43.1228 43.6842 43.4137C43.6842 50.3211 43.6842 57.2271 43.6842 64.1322L43.6878 64.6581Z" fill="white"/>
<path d="M103.905 35.5265C103.677 35.677 103.554 35.7576 103.411 35.8557C101.708 37.1404 100.009 38.4254 98.3126 39.7101L93.621 43.2665C93.4527 43.3926 93.2707 43.5187 93.1163 43.6484C92.8869 43.8392 92.6044 43.9542 92.3071 43.9782C92.0097 44.002 91.7123 43.9334 91.4556 43.7816C91.2489 43.6767 91.0454 43.561 90.8459 43.4313C90.6373 43.2899 90.4169 43.1667 90.1871 43.0634C89.9278 42.9792 89.8157 42.7446 89.609 42.6042C88.9642 42.1628 88.3126 41.7355 87.6363 41.3465C84.7841 39.7111 81.9343 38.0667 79.0867 36.4128C76.8066 35.0884 74.5281 33.7605 72.2505 32.429L71.9349 32.2399C71.8459 31.0267 71.8459 29.8086 71.9349 28.5957C71.9528 28.5853 71.9717 28.5772 71.9912 28.571C72.0116 28.5645 72.0337 28.5645 72.0542 28.571C72.1117 28.5931 72.168 28.6188 72.2226 28.6481L74.4686 29.948L92.5277 40.4531L92.6187 40.4986C92.738 40.418 92.8816 40.3338 93.0146 40.2356C94.7575 38.9347 96.4975 37.6321 98.2356 36.3289L104.452 31.637C104.616 31.507 104.791 31.3897 104.974 31.2867C105.276 31.1268 105.628 31.0891 105.957 31.181C106.286 31.2727 106.567 31.4875 106.743 31.7807C106.947 32.103 107.06 32.4748 107.069 32.8564C107.069 33.7007 107.108 34.5454 107.108 35.3861C107.108 46.5987 107.108 57.8115 107.108 69.0241C107.108 69.2691 107.108 69.5145 107.108 69.7774C105.991 69.0699 104.926 68.2857 103.919 67.4297L103.905 35.5265Z" fill="white"/>
<path d="M71.7488 55.4812C71.7488 53.1173 71.7488 50.7533 71.7488 48.3893C71.7488 48.1153 71.7735 47.8423 71.8226 47.5729C71.9165 47.1481 72.1398 46.763 72.4615 46.4705C72.7836 46.1784 73.1882 45.9928 73.6201 45.9401C73.8092 45.9226 73.9984 45.9086 74.1875 45.9086H79.5102C80.3559 45.8823 81.196 46.0552 81.963 46.413C82.8521 46.8199 83.612 47.4637 84.1589 48.2739C84.7059 49.0844 85.0192 50.0298 85.0637 51.0068C85.0637 51.1117 85.0637 51.217 85.0637 51.322C85.0637 54.1251 85.0637 56.9343 85.0637 59.749C85.0696 61.1553 84.5213 62.5076 83.5375 63.5128C82.5541 64.518 81.2142 65.0955 79.8079 65.1205C77.8668 65.1485 75.922 65.0994 73.9808 65.1381C73.6854 65.1429 73.392 65.088 73.1183 64.9769C72.8443 64.8657 72.5957 64.7006 72.3871 64.4913C72.1784 64.282 72.014 64.0328 71.9038 63.7588C71.7936 63.4845 71.7397 63.191 71.7455 62.8956C71.7488 60.4254 71.7488 57.9515 71.7488 55.4812ZM75.0322 61.8443C75.0813 61.8758 75.0988 61.9005 75.116 61.9005C76.6753 61.9005 78.2382 61.9249 79.7975 61.9005C80.0735 61.8963 80.3461 61.8358 80.598 61.7224C80.8499 61.609 81.0757 61.4455 81.262 61.2417C81.4644 61.0253 81.622 60.7715 81.726 60.4942C81.83 60.217 81.8781 59.9223 81.8684 59.6262C81.8684 56.9037 81.8684 54.1813 81.8684 51.4588C81.8742 51.2469 81.8554 51.0354 81.8122 50.828C81.6994 50.3409 81.4222 49.9076 81.027 49.6012C80.6318 49.2947 80.143 49.1342 79.6432 49.1462C78.1856 49.1462 76.728 49.1462 75.274 49.1462C75.1801 49.1553 75.0874 49.1728 74.9971 49.1985C74.9971 53.3474 74.9971 57.4864 74.9971 61.6164C74.9974 61.6935 75.0068 61.7698 75.025 61.8443H75.0322Z" fill="white"/>
<path d="M64.365 59.0869V54.9136C64.3536 54.6182 64.3975 54.3238 64.4947 54.0446C64.625 53.7209 64.8531 53.446 65.1469 53.2575C65.4407 53.069 65.7859 52.977 66.1346 52.9936C66.496 53.0089 66.8424 53.1431 67.1203 53.3748C67.3981 53.6065 67.5925 53.9231 67.6728 54.276C67.7189 54.5064 67.7404 54.7414 67.7358 54.9767C67.7358 57.7167 67.7358 60.458 67.7358 63.2003C67.7404 63.4106 67.7238 63.6208 67.6867 63.8275C67.6084 64.2133 67.3949 64.5588 67.0845 64.8009C66.7745 65.043 66.3877 65.1665 65.9942 65.1486C65.6019 65.1382 65.2256 64.9897 64.9315 64.7297C64.6373 64.4697 64.4443 64.1142 64.3861 63.7261C64.365 63.5363 64.3578 63.3456 64.365 63.1548V59.0869Z" fill="white"/>
<path d="M65.7703 45.3585C66.6679 45.351 67.5321 45.7007 68.172 46.3302C68.8119 46.9598 69.1759 47.8177 69.183 48.7154C69.1905 49.613 68.8411 50.4768 68.2116 51.1171C67.5821 51.757 66.7241 52.1206 65.8265 52.1281C64.9286 52.1356 64.0647 51.7862 63.4248 51.1567C62.7849 50.5272 62.4209 49.6692 62.4134 48.7716C62.4063 47.8736 62.7557 47.0098 63.3852 46.3699C64.0147 45.7297 64.8727 45.366 65.7703 45.3585ZM65.8265 50.8281C66.3777 50.8216 66.9042 50.5967 67.2896 50.2025C67.6754 49.8083 67.8889 49.2773 67.8831 48.7258C67.8759 48.1733 67.651 47.6455 67.2578 47.2574C66.8642 46.8691 66.3335 46.6517 65.781 46.6517C65.5067 46.6565 65.236 46.7157 64.9848 46.8255C64.7336 46.9357 64.5064 47.094 64.3166 47.2919C64.1268 47.4901 63.978 47.7235 63.8785 47.9793C63.7794 48.235 63.7316 48.5077 63.7381 48.782C63.7407 49.0527 63.7973 49.3202 63.9039 49.5688C64.0105 49.8177 64.1651 50.043 64.3595 50.2315C64.5535 50.4203 64.7833 50.5685 65.0352 50.6679C65.2867 50.7674 65.5558 50.8158 65.8265 50.8106V50.8281Z" fill="white"/>
</g>
<defs>
<clipPath id="clip0_5123_24459">
<rect width="140" height="120" fill="white"/>
</clipPath>
</defs>
</svg>
