<svg width="1685" height="1300" viewBox="0 0 1685 1402" fill="none" xmlns="http://www.w3.org/2000/svg">
<path opacity="0.043478" d="M-786.434 255.629L-243.809 581.349C-133.887 647.331 4.98331 640.481 107.876 564L305.221 417.315C399.121 347.519 523.867 335.221 629.589 385.337L767.666 450.791C869.522 499.075 991.384 464.432 1052.62 369.797C1095.2 303.979 1169.31 262.429 1247.06 272.483C1328.06 282.955 1388.72 303.767 1468.16 343.512" stroke="#1EF0CA" stroke-width="5.65157" stroke-linecap="round" stroke-dasharray="0.06 22.61"/>
<path opacity="0.086957" d="M-776.743 261.447L-234.118 587.166C-124.196 653.148 14.6745 646.298 117.567 569.817L314.913 423.132C408.812 353.336 533.558 341.039 639.28 391.155L777.357 456.608C879.213 504.892 1001.07 470.25 1062.31 375.614C1104.89 309.797 1179.01 268.246 1256.75 278.3C1337.75 288.773 1398.41 309.584 1477.85 349.329" stroke="#1EF0CA" stroke-width="5.65157" stroke-linecap="round" stroke-dasharray="0.06 22.61"/>
<path opacity="0.130435" d="M-767.052 267.264L-224.426 592.983C-114.505 658.966 24.3656 652.115 127.259 575.634L324.604 428.949C418.503 359.154 543.25 346.856 648.972 396.972L787.048 462.425C888.904 510.709 1010.77 476.067 1072 381.431C1114.58 315.615 1188.7 274.063 1266.44 284.117C1347.44 294.59 1408.1 315.401 1487.55 355.146" stroke="#1EF0CA" stroke-width="5.65157" stroke-linecap="round" stroke-dasharray="0.06 22.61"/>
<path opacity="0.173913" d="M-757.36 273.081L-214.735 598.801C-104.813 664.783 34.057 657.932 136.95 581.452L334.295 434.766C428.195 364.971 552.941 352.673 658.663 402.789L796.74 468.243C898.595 516.527 1020.46 481.884 1081.69 387.248C1124.27 321.432 1198.39 279.881 1276.13 289.935C1357.13 300.407 1417.79 321.219 1497.24 360.964" stroke="#1EF0CA" stroke-width="5.65157" stroke-linecap="round" stroke-dasharray="0.06 22.61"/>
<path opacity="0.217391" d="M-747.669 278.899L-205.044 604.618C-95.1222 670.6 43.7482 663.75 146.641 587.269L343.986 440.584C437.886 370.788 562.632 358.491 668.354 408.607L806.431 474.06C908.286 522.344 1030.15 487.702 1091.38 393.066C1133.96 327.249 1208.08 285.698 1285.82 295.752C1366.82 306.225 1427.48 327.036 1506.93 366.781" stroke="#1EF0CA" stroke-width="5.65157" stroke-linecap="round" stroke-dasharray="0.06 22.61"/>
<path opacity="0.26087" d="M-737.978 284.716L-195.353 610.435C-85.431 676.417 53.4394 669.567 156.332 593.086L353.677 446.401C447.577 376.606 572.323 364.308 678.045 414.424L816.122 479.877C917.982 528.164 1039.84 493.519 1101.08 398.883C1143.65 333.067 1217.77 291.515 1295.51 301.569C1376.51 312.042 1437.17 332.853 1516.62 372.598" stroke="#1EF0CA" stroke-width="5.65157" stroke-linecap="round" stroke-dasharray="0.06 22.61"/>
<path opacity="0.304348" d="M-728.287 290.533L-185.662 616.253C-75.7399 682.235 63.1305 675.384 166.023 598.904L363.369 452.218C457.268 382.423 582.014 370.125 687.737 420.241L825.813 485.694C927.673 533.981 1049.53 499.336 1110.77 404.7C1153.35 338.884 1227.46 297.333 1305.2 307.387C1386.2 317.859 1446.87 338.671 1526.31 378.415" stroke="#1EF0CA" stroke-width="5.65157" stroke-linecap="round" stroke-dasharray="0.06 22.61"/>
<path opacity="0.347826" d="M-718.595 296.351L-175.97 622.07C-66.0485 688.052 72.8219 681.202 175.715 604.721L373.06 458.036C466.959 388.24 591.706 375.942 697.428 426.058L835.505 491.512C937.364 539.798 1059.22 505.153 1120.46 410.518C1163.04 344.701 1237.15 303.15 1314.9 313.204C1395.9 323.676 1456.56 344.488 1536 384.233" stroke="#1EF0CA" stroke-width="5.65157" stroke-linecap="round" stroke-dasharray="0.06 22.61"/>
<path opacity="0.391304" d="M-708.904 302.168L-166.279 627.887C-56.3573 693.87 82.5131 687.019 185.406 610.538L382.751 463.853C476.651 394.058 601.397 381.76 707.119 431.876L845.196 497.329C947.055 545.616 1068.91 510.971 1130.15 416.335C1172.73 350.518 1246.84 308.967 1324.59 319.021C1405.59 329.494 1466.25 350.305 1545.69 390.05" stroke="#1EF0CA" stroke-width="5.65157" stroke-linecap="round" stroke-dasharray="0.06 22.61"/>
<path opacity="0.434783" d="M-699.213 307.985L-156.588 633.704C-46.6661 699.687 92.2043 692.836 195.097 616.356L392.442 469.67C486.342 399.875 611.088 387.577 716.81 437.693L854.887 503.146C956.746 551.433 1078.6 516.788 1139.84 422.152C1182.42 356.335 1256.53 314.785 1334.28 324.839C1415.28 335.311 1475.94 356.123 1555.38 395.867" stroke="#1EF0CA" stroke-width="5.65157" stroke-linecap="round" stroke-dasharray="0.06 22.61"/>
<path opacity="0.478261" d="M-689.522 313.802L-146.897 639.522C-36.975 705.504 101.895 698.654 204.788 622.173L402.133 475.488C496.033 405.692 620.779 393.394 726.501 443.51L864.578 508.964C966.438 557.25 1088.3 522.605 1149.53 427.97C1192.11 362.152 1266.23 320.602 1343.97 330.656C1424.97 341.128 1485.63 361.94 1565.08 401.685" stroke="#1EF0CA" stroke-width="5.65157" stroke-linecap="round" stroke-dasharray="0.06 22.61"/>
<path opacity="0.521739" d="M-679.83 319.62L-137.205 645.339C-27.2836 711.322 111.587 704.471 214.48 627.99L411.825 481.305C505.724 411.51 630.471 399.212 736.193 449.328L874.27 514.781C976.129 563.068 1097.99 528.423 1159.22 433.787C1201.8 367.97 1275.92 326.419 1353.66 336.473C1434.66 346.946 1495.32 367.757 1574.77 407.502" stroke="#1EF0CA" stroke-width="5.65157" stroke-linecap="round" stroke-dasharray="0.06 22.61"/>
<path opacity="0.565217" d="M-670.139 325.437L-127.514 651.156C-17.5924 717.139 121.278 710.288 224.171 633.807L421.516 487.122C515.416 417.327 640.162 405.029 745.884 455.145L883.961 520.598C985.82 568.885 1107.68 534.24 1168.91 439.604C1211.49 373.788 1285.61 332.236 1363.35 342.29C1444.35 352.763 1505.01 373.575 1584.46 413.319" stroke="#1EF0CA" stroke-width="5.65157" stroke-linecap="round" stroke-dasharray="0.06 22.61"/>
<path opacity="0.608696" d="M-660.448 331.254L-117.823 656.974C-7.90123 722.956 130.969 716.106 233.862 639.625L431.207 492.94C525.107 423.144 649.853 410.846 755.575 460.962L893.652 526.416C995.511 574.702 1117.37 540.057 1178.61 445.422C1221.18 379.605 1295.3 338.054 1373.04 348.108C1454.04 358.58 1514.7 379.392 1594.15 419.137" stroke="#1EF0CA" stroke-width="5.65157" stroke-linecap="round" stroke-dasharray="0.06 22.61"/>
<path opacity="0.652174" d="M-650.757 337.072L-108.132 662.791C1.78993 728.773 140.66 721.923 243.553 645.442L440.898 498.757C534.798 428.961 659.544 416.664 765.266 466.78L903.343 532.233C1005.2 580.52 1127.06 545.875 1188.3 451.239C1230.88 385.423 1304.99 343.871 1382.73 353.925C1463.73 364.398 1524.39 385.209 1603.84 424.954" stroke="#1EF0CA" stroke-width="5.65157" stroke-linecap="round" stroke-dasharray="0.06 22.61"/>
<path opacity="0.695652" d="M-641.065 342.889L-98.4404 668.608C11.4813 734.591 150.352 727.74 253.245 651.259L450.59 504.574C544.489 434.779 669.236 422.481 774.958 472.597L913.035 538.051C1014.89 586.337 1136.75 551.692 1197.99 457.056C1240.57 391.24 1314.68 349.688 1392.43 359.742C1473.43 370.215 1534.09 391.026 1613.53 430.771" stroke="#1EF0CA" stroke-width="5.65157" stroke-linecap="round" stroke-dasharray="0.06 22.61"/>
<path opacity="0.73913" d="M-631.374 348.706L-88.7492 674.426C21.1725 740.408 160.043 733.557 262.936 657.077L460.281 510.391C554.18 440.596 678.927 428.298 784.649 478.414L922.727 543.868C1024.59 592.154 1146.44 557.509 1207.68 462.873C1250.26 397.057 1324.37 355.506 1402.12 365.56C1483.12 376.032 1543.78 396.844 1623.22 436.589" stroke="#1EF0CA" stroke-width="5.65157" stroke-linecap="round" stroke-dasharray="0.06 22.61"/>
<path opacity="0.782609" d="M-621.683 354.524L-79.0581 680.243C30.8637 746.225 169.734 739.375 272.627 662.894L469.972 516.209C563.872 446.413 688.618 434.116 794.34 484.232L932.418 549.686C1034.28 597.971 1156.13 563.327 1217.37 468.691C1259.95 402.873 1334.06 361.323 1411.81 371.377C1492.81 381.849 1553.47 402.661 1632.91 442.406" stroke="#1EF0CA" stroke-width="5.65157" stroke-linecap="round" stroke-dasharray="0.06 22.61"/>
<path opacity="0.826087" d="M-611.992 360.341L-69.3669 686.06C40.5548 752.043 179.425 745.192 282.318 668.712L479.663 522.026C573.563 452.231 698.309 439.933 804.031 490.049L942.109 555.503C1043.97 603.789 1165.83 569.144 1227.06 474.508C1269.64 408.691 1343.76 367.14 1421.5 377.194C1502.5 387.667 1563.16 408.479 1642.61 448.223" stroke="#1EF0CA" stroke-width="5.65157" stroke-linecap="round" stroke-dasharray="0.06 22.61"/>
<path opacity="0.869565" d="M-602.301 366.158L-59.6755 691.878C50.2462 757.86 189.117 751.009 292.01 674.529L489.355 527.843C583.254 458.048 708.001 445.75 813.723 495.866L951.8 561.32C1053.66 609.606 1175.52 574.961 1236.75 480.325C1279.33 414.508 1353.45 372.958 1431.19 383.012C1512.19 393.484 1572.85 414.296 1652.3 454.04" stroke="#1EF0CA" stroke-width="5.65157" stroke-linecap="round" stroke-dasharray="0.06 22.61"/>
<path opacity="0.913043" d="M-592.609 371.976L-49.9843 697.695C59.9374 763.677 198.808 756.827 301.701 680.346L499.046 533.661C592.945 463.865 717.692 451.567 823.414 501.683L961.492 567.137C1063.35 615.423 1185.21 580.779 1246.44 486.143C1289.02 420.325 1363.14 378.775 1440.88 388.829C1521.88 399.301 1582.54 420.113 1661.99 459.858" stroke="#1EF0CA" stroke-width="5.65157" stroke-linecap="round" stroke-dasharray="0.06 22.61"/>
<path opacity="0.956522" d="M-582.918 377.793L-40.2932 703.512C69.6286 769.495 208.499 762.644 311.392 686.163L508.737 539.478C602.636 469.683 727.383 457.385 833.105 507.501L971.183 572.955C1073.04 621.241 1194.9 586.596 1256.14 491.96C1298.71 426.144 1372.83 384.592 1450.57 394.646C1531.57 405.119 1592.23 425.93 1671.68 465.675" stroke="#1EF0CA" stroke-width="5.65157" stroke-linecap="round" stroke-dasharray="0.06 22.61"/>
<path d="M-573.227 383.61L-30.602 709.33C79.3197 775.312 218.189 768.461 321.083 691.981L518.428 545.295C612.328 475.5 737.074 463.202 842.796 513.318L980.874 578.772C1082.73 627.058 1204.59 592.413 1265.83 497.777C1308.41 431.961 1382.52 390.41 1460.26 400.464C1541.26 410.936 1601.92 431.748 1681.37 471.492" stroke="#1EF0CA" stroke-width="5.65157" stroke-linecap="round" stroke-dasharray="0.06 22.61"/>
<path d="M-884.327 197.043L-31.3055 709.083C78.4766 774.981 217.149 768.239 320.021 692.001L518.513 544.899C612.383 475.331 736.945 463.141 842.521 513.188L980.874 578.772C1082.73 627.057 1204.6 592.419 1265.83 497.777C1308.41 431.96 1382.52 390.409 1460.26 400.463C1541.27 410.942 1601.92 431.748 1681.37 471.493" stroke="url(#paint0_linear_4205_19424)" stroke-width="6.78188" stroke-linecap="round"/>
<defs>
<linearGradient id="paint0_linear_4205_19424" x1="-521.72" y1="409.567" x2="120.607" y2="791.371" gradientUnits="userSpaceOnUse">
<stop offset="0.2185" stop-color="#07071C"/>
<stop offset="0.508251" stop-color="#AB21EC"/>
<stop offset="0.755624" stop-color="#AB21EC" stop-opacity="0"/>
</linearGradient>
</defs>
</svg>
